<?xml version="1.0" encoding="UTF-8"?>
<svg id="SVG" xmlns="http://www.w3.org/2000/svg" viewBox="0 0 2580 1100">
  <defs>
    <style>
      .cls-1 {
        fill: #017300;
      }

      .cls-2 {
        fill: #ffd833;
      }

      .cls-3 {
        fill: #fc7340;
      }

      .cls-4 {
        fill: #ffb8c7;
      }

      .cls-5 {
        fill: #3b61bc;
      }
    </style>
  </defs>
  <g>
    <path class="cls-1" d="M920.46,861.07h-2.58c-1.17,5.42-5.19,8.87-11.42,8.87-7.4,0-12.09-5.26-12.05-12.12,.03-6.53,4.22-12.45,12.39-12.45,5.72,0,9.78,3.38,10.18,7.6h-4.22c-.5-2.34-2.61-4.15-5.96-4.15-5.72,0-8.37,4.15-8.34,9.01-.03,4.85,3.05,8.67,8,8.67,3.85,0,6.43-1.74,7.37-5.42h-4.52v-3.45h11.15v3.45Z"/>
    <path class="cls-1" d="M923.93,848.82c0-1.51,1.1-2.71,2.71-2.71s2.71,1.21,2.71,2.71-1.1,2.71-2.71,2.71-2.71-1.21-2.71-2.71Zm.87,4.96h3.65v15.6h-3.65v-15.6Z"/>
    <path class="cls-1" d="M932.13,853.77h3.92l4.32,10.71,4.32-10.71h3.92l-6.76,15.6h-2.95l-6.76-15.6Z"/>
    <path class="cls-1" d="M965.61,862.78h-11.58c.1,2.48,1.71,3.82,4.35,3.82,1.81,0,2.88-.57,3.48-1.77h3.68c-.47,2.91-3.41,4.95-7.16,4.95-4.92,0-7.97-3.15-7.97-8.2s3.08-8.2,7.83-8.2c4.45,0,7.47,3.01,7.47,7.4,0,.7-.03,1.07-.1,2.01Zm-3.48-2.78c-.03-2.41-1.44-3.75-3.95-3.75s-4.12,1.54-4.15,3.75h8.1Z"/>
    <path class="cls-1" d="M977.59,876.27v-3.25c.47,.1,.87,.13,1.37,.13,.97,0,1.41-.5,1.41-1.61v-17.78h3.65v18.85c0,2.58-1.51,3.98-4.29,3.98-1.04,0-1.71-.1-2.14-.33Zm1.91-27.45c0-1.51,1.1-2.71,2.71-2.71s2.71,1.21,2.71,2.71-1.1,2.71-2.71,2.71-2.71-1.21-2.71-2.71Z"/>
    <path class="cls-1" d="M988.87,861.57c0-4.59,3.08-8.2,8.24-8.2s8.24,3.62,8.24,8.2-3.08,8.2-8.24,8.2-8.24-3.62-8.24-8.2Zm12.82,0c0-2.84-1.64-4.95-4.59-4.95s-4.59,2.11-4.59,4.95,1.64,4.96,4.59,4.96,4.59-2.11,4.59-4.96Z"/>
    <path class="cls-1" d="M1024.45,853.77v15.67c0,2.44-.74,4.29-2.04,5.56-1.27,1.17-3.08,1.81-5.29,1.81s-4.12-.57-5.36-1.61c-1.1-.97-1.71-2.34-1.74-4.05h3.68c.17,1.71,1,2.64,3.35,2.64,2.18,0,3.75-1.31,3.75-4.62v-1.97c-.97,1.67-2.71,2.58-5.02,2.58-3.85,0-5.76-2.75-5.76-6.49v-9.51h3.65v8.74c0,2.31,.77,4.05,3.38,4.05s3.75-2.04,3.75-4.72v-8.07h3.65Z"/>
    <path class="cls-1" d="M1049.09,866.16v3.21c-.57,.1-1.64,.2-2.71,.2-1.77,0-5.06-.23-5.06-5.49v-7.26h-2.64v-3.05h2.64v-4.72h3.65v4.72h3.58v3.05h-3.58v6.43c0,2.71,.84,3.05,2.28,3.05,.57,0,1.47-.07,1.84-.13Z"/>
    <path class="cls-1" d="M1052.43,861.57c0-4.59,3.08-8.2,8.24-8.2s8.24,3.62,8.24,8.2-3.08,8.2-8.24,8.2-8.24-3.62-8.24-8.2Zm12.82,0c0-2.84-1.64-4.95-4.59-4.95s-4.59,2.11-4.59,4.95,1.64,4.96,4.59,4.96,4.59-2.11,4.59-4.96Z"/>
    <path class="cls-1" d="M1092.37,866.16v3.21c-.57,.1-1.64,.2-2.71,.2-1.77,0-5.06-.23-5.06-5.49v-7.26h-2.64v-3.05h2.64v-4.72h3.65v4.72h3.58v3.05h-3.58v6.43c0,2.71,.84,3.05,2.28,3.05,.57,0,1.47-.07,1.84-.13Z"/>
    <path class="cls-1" d="M1111.48,859.56v9.81h-3.65v-8.13c0-3.31-.87-4.75-3.41-4.75-2.38,0-3.72,1.57-3.72,4.32v8.57h-3.65v-23.43h3.65v10.01c.97-1.67,2.78-2.58,5.09-2.58,3.75,0,5.69,2.11,5.69,6.19Z"/>
    <path class="cls-1" d="M1131.36,862.78h-11.58c.1,2.48,1.71,3.82,4.35,3.82,1.81,0,2.88-.57,3.48-1.77h3.68c-.47,2.91-3.41,4.95-7.16,4.95-4.92,0-7.97-3.15-7.97-8.2s3.08-8.2,7.83-8.2c4.45,0,7.47,3.01,7.47,7.4,0,.7-.03,1.07-.1,2.01Zm-3.48-2.78c-.03-2.41-1.44-3.75-3.95-3.75s-4.12,1.54-4.15,3.75h8.1Z"/>
    <path class="cls-1" d="M1144.85,861.57c0-4.59,3.08-8.2,8.24-8.2s8.24,3.62,8.24,8.2-3.08,8.2-8.24,8.2-8.24-3.62-8.24-8.2Zm12.82,0c0-2.84-1.64-4.95-4.59-4.95s-4.59,2.11-4.59,4.95,1.64,4.96,4.59,4.96,4.59-2.11,4.59-4.96Z"/>
    <path class="cls-1" d="M1166.17,853.77h3.65v2.18c.97-1.67,2.78-2.58,5.09-2.58,3.75,0,5.69,2.11,5.69,6.19v9.81h-3.65v-8.13c0-3.31-.87-4.75-3.42-4.75-2.38,0-3.72,1.57-3.72,4.32v8.57h-3.65v-15.6Z"/>
    <path class="cls-1" d="M1200.48,862.78h-11.58c.1,2.48,1.71,3.82,4.35,3.82,1.81,0,2.88-.57,3.48-1.77h3.68c-.47,2.91-3.41,4.95-7.16,4.95-4.92,0-7.97-3.15-7.97-8.2s3.08-8.2,7.83-8.2c4.45,0,7.47,3.01,7.47,7.4,0,.7-.03,1.07-.1,2.01Zm-3.48-2.78c-.03-2.41-1.44-3.75-3.95-3.75s-4.12,1.54-4.15,3.75h8.1Z"/>
    <path class="cls-1" d="M1204.27,864.58h3.65c0,1.34,1.31,2.28,3.18,2.28,1.37,0,2.24-.74,2.24-1.84,0-.7-.27-1.41-1.17-1.64l-4.02-1.11c-2.31-.64-3.38-2.24-3.38-4.32,0-2.54,2.38-4.59,5.99-4.59,4.08,0,6.16,2.08,6.16,4.85h-3.58c0-1.31-1-2.08-2.71-2.08-1.27,0-2.24,.64-2.24,1.61,0,.87,.54,1.44,1.34,1.67l3.72,1.07c2.11,.6,3.62,2.18,3.62,4.19,0,2.98-2.18,5.09-6.16,5.09s-6.63-2.34-6.63-5.19Z"/>
    <path class="cls-1" d="M1229.6,853.77h4.02l3.25,10.31,3.38-10.31h3.95l3.38,10.31,3.25-10.31h4.02l-5.76,15.6h-3.08l-3.78-11.11-3.78,11.11h-3.08l-5.76-15.6Z"/>
    <path class="cls-1" d="M1273.12,859.56v9.81h-3.65v-8.13c0-3.31-.87-4.75-3.41-4.75-2.38,0-3.72,1.57-3.72,4.32v8.57h-3.65v-23.43h3.65v10.01c.97-1.67,2.78-2.58,5.09-2.58,3.75,0,5.69,2.11,5.69,6.19Z"/>
    <path class="cls-1" d="M1277.8,861.57c0-4.59,3.08-8.2,8.24-8.2s8.24,3.62,8.24,8.2-3.08,8.2-8.24,8.2-8.24-3.62-8.24-8.2Zm12.82,0c0-2.84-1.64-4.95-4.59-4.95s-4.59,2.11-4.59,4.95,1.64,4.96,4.59,4.96,4.59-2.11,4.59-4.96Z"/>
    <path class="cls-1" d="M942.08,891.94h3.65v23.43h-3.65v-23.43Z"/>
    <path class="cls-1" d="M950.88,894.82c0-1.51,1.1-2.71,2.71-2.71s2.71,1.21,2.71,2.71-1.1,2.71-2.71,2.71-2.71-1.21-2.71-2.71Zm.87,4.96h3.65v15.6h-3.65v-15.6Z"/>
    <path class="cls-1" d="M976.55,899.77v14.93c0,3.08-.97,5.39-2.81,6.73-1.31,.97-3.11,1.37-5.36,1.37-2.08,0-4.05-.43-5.49-1.41-1.47-1-2.41-2.51-2.48-4.25h3.82c.3,1.61,1.61,2.64,4.12,2.64,2.98,0,4.55-1.31,4.55-4.82v-1.71c-.94,1.57-3.08,2.51-4.99,2.51-4.85,0-7.67-3.62-7.67-8.2s3.08-8.2,7.77-8.2c2.08,0,3.95,.94,4.89,2.51v-2.11h3.65Zm-3.48,7.8c0-2.68-1.64-4.95-4.62-4.95-2.75,0-4.55,2.11-4.55,4.95s1.81,4.96,4.55,4.96c2.98,0,4.62-2.28,4.62-4.96Z"/>
    <path class="cls-1" d="M997.01,905.56v9.81h-3.65v-8.13c0-3.31-.87-4.75-3.42-4.75-2.38,0-3.72,1.57-3.72,4.32v8.57h-3.65v-23.43h3.65v10.01c.97-1.67,2.78-2.58,5.09-2.58,3.75,0,5.69,2.11,5.69,6.19Z"/>
    <path class="cls-1" d="M1011.3,912.16v3.21c-.57,.1-1.64,.2-2.71,.2-1.77,0-5.06-.23-5.06-5.49v-7.26h-2.64v-3.05h2.64v-4.72h3.65v4.72h3.58v3.05h-3.58v6.43c0,2.71,.84,3.05,2.28,3.05,.57,0,1.47-.07,1.84-.13Z"/>
    <path class="cls-1" d="M1025.52,909.58v-9.81h3.65v8.91c0,2.51,.8,3.98,3.18,3.98,2.78,0,3.78-1.84,3.78-4.08v-8.8h3.65v15.6h-3.65v-2.18c-.94,1.67-2.58,2.58-4.82,2.58-3.42,0-5.79-2.01-5.79-6.19Z"/>
    <path class="cls-1" d="M1062.11,907.57c0,4.82-3.15,8.2-7.67,8.2-2.08,0-4.05-1-4.99-2.51v9.14h-3.65v-22.63h3.65v2.11c.94-1.51,3.01-2.51,5.22-2.51,4.45,0,7.43,3.28,7.43,8.2Zm-3.65,0c0-2.91-1.87-4.95-4.55-4.95s-4.62,2.01-4.62,4.95,1.87,4.96,4.62,4.96,4.55-2.04,4.55-4.96Z"/>
    <path class="cls-1" d="M1090.93,899.77v15.67c0,2.44-.74,4.29-2.04,5.56-1.27,1.17-3.08,1.81-5.29,1.81s-4.12-.57-5.36-1.61c-1.1-.97-1.71-2.34-1.74-4.05h3.68c.17,1.71,1,2.64,3.35,2.64,2.18,0,3.75-1.31,3.75-4.62v-1.97c-.97,1.67-2.71,2.58-5.02,2.58-3.85,0-5.76-2.75-5.76-6.49v-9.51h3.65v8.74c0,2.31,.77,4.05,3.38,4.05s3.75-2.04,3.75-4.72v-8.07h3.65Z"/>
    <path class="cls-1" d="M1095.78,907.57c0-4.59,3.08-8.2,8.24-8.2s8.24,3.62,8.24,8.2-3.08,8.2-8.24,8.2-8.24-3.62-8.24-8.2Zm12.82,0c0-2.84-1.64-4.95-4.59-4.95s-4.59,2.11-4.59,4.95,1.64,4.96,4.59,4.96,4.59-2.11,4.59-4.96Z"/>
    <path class="cls-1" d="M1116.94,909.58v-9.81h3.65v8.91c0,2.51,.8,3.98,3.18,3.98,2.78,0,3.78-1.84,3.78-4.08v-8.8h3.65v15.6h-3.65v-2.18c-.94,1.67-2.58,2.58-4.82,2.58-3.42,0-5.79-2.01-5.79-6.19Z"/>
    <path class="cls-1" d="M1137.22,899.77h3.65v3.01c.57-2.21,2.44-3.21,4.15-3.21,.57,0,1.04,.03,1.44,.13v3.35c-.57-.07-.87-.07-1.44-.07-2.58,0-4.15,1.94-4.15,5.49v6.9h-3.65v-15.6Z"/>
    <path class="cls-1" d="M1158.34,899.77h4.02l3.25,10.31,3.38-10.31h3.95l3.38,10.31,3.25-10.31h4.02l-5.76,15.6h-3.08l-3.78-11.11-3.78,11.11h-3.08l-5.76-15.6Z"/>
    <path class="cls-1" d="M1185.59,907.57c0-4.59,3.08-8.2,8.24-8.2s8.24,3.62,8.24,8.2-3.08,8.2-8.24,8.2-8.24-3.62-8.24-8.2Zm12.82,0c0-2.84-1.64-4.95-4.59-4.95s-4.59,2.11-4.59,4.95,1.64,4.96,4.59,4.96,4.59-2.11,4.59-4.96Z"/>
    <path class="cls-1" d="M1206.91,899.77h3.65v3.01c.57-2.21,2.44-3.21,4.15-3.21,.57,0,1.04,.03,1.44,.13v3.35c-.57-.07-.87-.07-1.44-.07-2.58,0-4.15,1.94-4.15,5.49v6.9h-3.65v-15.6Z"/>
    <path class="cls-1" d="M1220.5,891.94h3.65v23.43h-3.65v-23.43Z"/>
    <path class="cls-1" d="M1245.3,891.94v23.43h-3.65v-2.11c-.94,1.57-3.08,2.51-4.99,2.51-5.02,0-7.67-3.62-7.67-8.2s2.91-8.2,7.77-8.2c2.08,0,3.95,.94,4.89,2.51v-9.94h3.65Zm-3.48,15.63c0-2.68-1.51-4.95-4.62-4.95-2.85,0-4.55,2.11-4.55,4.95s1.71,4.96,4.55,4.96c3.11,0,4.62-2.28,4.62-4.96Z"/>
    <path class="cls-1" d="M1250.99,912.79c0-1.54,1.24-2.81,2.81-2.81s2.85,1.27,2.85,2.81-1.27,2.85-2.85,2.85-2.81-1.31-2.81-2.85Z"/>
  </g>
  <rect class="cls-3" x="1345.25" y="838.09" width="341.52" height="92"/>
  <g>
    <path class="cls-4" d="M1397.77,888.83h4.51c0,3.57,2.04,5.72,5.45,5.72,2.98,0,4.62-1.37,4.62-3.84,0-2.08-.98-3.13-4.08-4.39l-4.47-1.8c-3.45-1.33-5.25-3.8-5.25-7.29,0-4.47,3.61-7.52,8.78-7.52,5.45,0,9.05,3.41,9.05,8.58h-4.51c0-3.02-1.65-4.74-4.7-4.74-2.59,0-4.08,1.33-4.08,3.41,0,1.88,1.33,3.13,4.54,4.43l4.04,1.65c3.45,1.41,5.17,3.84,5.17,7.56,0,4.7-3.64,7.88-9.09,7.88-6.35,0-9.99-3.49-9.99-9.64Z"/>
    <path class="cls-4" d="M1423.52,870.37h4.51v11.79h11.33v-11.79h4.51v27.43h-4.51v-11.6h-11.33v11.6h-4.51v-27.43Z"/>
    <path class="cls-4" d="M1450.52,884.09c0-7.84,5.29-14.38,14.18-14.38s14.18,6.54,14.18,14.38-5.29,14.38-14.18,14.38-14.18-6.54-14.18-14.38Zm23.63,0c.04-5.68-3.37-10.34-9.44-10.34s-9.48,4.66-9.44,10.34c-.04,5.68,3.37,10.34,9.44,10.34s9.48-4.66,9.44-10.34Z"/>
    <path class="cls-4" d="M1505.07,879.97c0,5.6-3.92,9.6-9.4,9.6h-5.6v8.23h-4.51v-27.43h10.11c5.49,0,9.4,4,9.4,9.6Zm-4.51,0c0-3.21-2.19-5.56-5.17-5.56h-5.33v11.13h5.33c2.98,0,5.17-2.35,5.17-5.56Z"/>
    <path class="cls-4" d="M1551.82,888.08h-3.02c-1.37,6.35-6.07,10.38-13.36,10.38-8.66,0-14.15-6.15-14.11-14.18,.04-7.64,4.94-14.58,14.5-14.58,6.7,0,11.44,3.96,11.91,8.9h-4.94c-.59-2.74-3.06-4.86-6.97-4.86-6.7,0-9.8,4.86-9.76,10.54-.04,5.68,3.57,10.15,9.36,10.15,4.51,0,7.52-2.04,8.62-6.35h-5.29v-4.04h13.05v4.04Z"/>
    <path class="cls-4" d="M1557.9,870.37h4.51v27.43h-4.51v-27.43Z"/>
    <path class="cls-4" d="M1570.63,870.37h15.83v4.04h-11.32v8.7h11.32v4.04h-11.32v10.66h-4.51v-27.43Z"/>
    <path class="cls-4" d="M1599.71,874.61h-7.95v-4.23h20.45v4.23h-7.99v23.2h-4.51v-23.2Z"/>
    <path class="cls-4" d="M1615.15,888.83h4.51c0,3.57,2.04,5.72,5.45,5.72,2.98,0,4.62-1.37,4.62-3.84,0-2.08-.98-3.13-4.08-4.39l-4.47-1.8c-3.45-1.33-5.25-3.8-5.25-7.29,0-4.47,3.61-7.52,8.78-7.52,5.45,0,9.05,3.41,9.05,8.58h-4.51c0-3.02-1.65-4.74-4.7-4.74-2.59,0-4.08,1.33-4.08,3.41,0,1.88,1.33,3.13,4.54,4.43l4.04,1.65c3.45,1.41,5.17,3.84,5.17,7.56,0,4.7-3.64,7.88-9.09,7.88-6.35,0-9.99-3.49-9.99-9.64Z"/>
  </g>
  <path class="cls-2" d="M1218.66,131.5c0,5.2-3.9,11.06-10.08,13.33-5.2,2.28-15.61,3.25-27.64,3.9-43.58,61.14-77.73,117.08-110.58,167.17-22.77,34.8-56.27,75.46-85.86,104.07-40,42.28-66.67,52.69-82.61,52.69-22.77,0-32.2-18.54-32.52-44.56-.65-39.03,30.25-103.42,140.18-103.42h22.12l43.91-53.34c37.4-45.53,79.36-98.87,100.5-122.61-4.23,.33-9.11,.33-13.66,.33h-54.31c-40.33,0-57.89,33.5-24.72,66.67l-3.9,3.9c-37.08-37.08-17.56-75.78,28.62-75.78h72.85c11.38-12.03,20.81-20.81,29.27-20.81,4.88,0,8.46,3.58,8.46,8.46Zm-190.59,197.74h-17.89c-106.68,0-135.62,61.79-135.62,98.87,0,23.42,9.76,39.35,24.39,39.35,9.76,0,23.09-6.51,68.3-64.4l60.82-73.83Z"/>
  <path class="cls-2" d="M1252.49,289.56c-30.25,31.22-54.96,55.94-75.45,55.94-1.63,0-3.25-.33-4.55-.65-26.67,27.64-54.96,48.79-73.18,48.79-8.78,0-16.26-4.23-16.26-19.19,0-17.24,10.08-53.34,40-88.14,24.72-28.95,73.18-61.47,98.55-61.47,8.78,0,13.98,5.2,13.98,13.99,0,13.33-8.78,35.13-30.57,64.4-.98,3.25-2.93,6.83-6.18,11.06-6.83,8.78-14.31,17.56-22.12,26.02h.33c17.89,0,42.28-23.09,72.2-53.99l3.25,3.25Zm-84.24,53.01c-7.81-6.51-4.88-22.44,2.93-33.17,8.78-11.71,18.21-15.61,25.37-15.61,3.58,0,6.18,1.3,7.48,2.93,18.86-26.02,26.34-46.18,26.34-57.89,0-5.53-2.6-8.78-7.48-8.78-14.31,0-38.38,24.07-74.8,66.02-43.26,50.74-56.59,72.85-56.59,84.89,0,5.2,2.93,7.48,7.81,7.48,16.26,0,43.58-19.51,68.95-45.86Z"/>
  <path class="cls-2" d="M1434.94,230.37c0,6.18-5.2,12.03-16.26,21.14-11.06,8.78-22.44,16.91-32.52,26.02l-.98,.98c-18.86,31.87-57.57,96.92-83.91,134.97h35.78v5.2h-39.35c-.65,.98-1.63,2.28-2.28,3.25-27.97,40.33-62.44,57.89-84.89,57.89-17.56,0-23.74-10.41-23.74-20.16,0-19.84,22.12-40,85.86-45.21l48.46-57.57c25.69-30.25,45.53-56.92,55.94-71.55-83.26,73.5-127.17,108.3-146.68,108.3-8.78,0-12.03-6.18-12.03-13.01,0-25.37,24.07-57.24,51.06-82.94,34.8-33.5,54.96-48.13,54.96-62.12,0-2.93-1.3-4.55-4.55-4.55-9.43,0-28.3,18.86-67.32,58.54l-3.25-3.25c48.13-48.46,61.47-60.49,72.85-60.49,5.2,0,8.13,4.23,8.13,11.06,0,11.06-6.18,41.96-42.61,78.38-23.42,23.42-64.07,37.08-64.07,64.4,0,5.2,1.95,8.78,7.48,8.78,17.56,0,65.7-38.38,157.41-119.36,10.08-17.24,13.98-29.6,19.51-36.75,3.25-4.23,8.46-10.41,16.91-10.41,6.51,0,10.08,3.9,10.08,8.46Zm-167.17,189.94c-55.94,4.88-75.78,22.77-75.78,39.35,0,7.16,5.53,14.64,15.94,14.64,12.03,0,23.74-10.73,42.93-33.82l16.91-20.16Z"/>
  <path class="cls-2" d="M1252.51,518.82c0,14.96-25.69,52.04-66.67,95.62-63.1,67.32-138.88,143.75-147.33,152.21l-4.88-.33c13.99-29.27,39.68-85.86,56.59-117.73,2.93-5.53,7.48-14.31,13.01-24.07l-156.76,147.01h-4.55l58.87-106.68c47.81-86.51,58.22-104.73,75.78-121.96,11.06-10.73,21.79-19.51,34.47-28.3h-68.62v-5.2h76.76c10.73-6.83,16.26-9.76,20.81-9.76,3.58,0,5.53,2.6,5.53,5.2,0,5.85-9.11,9.76-22.44,9.76h-4.23c-7.48,15.61-24.07,45.86-45.86,77.73-26.02,38.38-63.1,89.77-108.63,153.84l.98,.65,146.03-136.92c13.01-22.77,27.97-47.48,38.38-54.96,8.46-6.18,35.13-6.83,18.21,8.78l-13.01,12.36c-12.68,22.77-35.13,64.72-48.46,84.89-14.96,22.77-40.65,65.05-47.16,76.1l1.63,.65c6.18-6.18,58.54-60.82,120.99-127.17,16.91-17.89,31.55-35.12,42.61-50.09,0-35.45,1.95-53.66,17.24-53.66,7.48,0,10.73,6.18,10.73,12.03Z"/>
  <path class="cls-2" d="M1321.78,655.09c-30.25,31.22-54.96,55.94-75.45,55.94-1.63,0-3.25-.33-4.55-.65-26.67,27.64-54.96,48.79-73.18,48.79-8.78,0-16.26-4.23-16.26-19.19,0-17.24,10.08-53.34,40-88.14,24.72-28.95,73.18-61.47,98.55-61.47,8.78,0,13.99,5.2,13.99,13.98,0,13.33-8.78,35.13-30.57,64.4-.97,3.25-2.93,6.83-6.18,11.06-6.83,8.78-14.31,17.56-22.12,26.02h.33c17.89,0,42.28-23.09,72.2-53.99l3.25,3.25Zm-84.24,53.01c-7.81-6.51-4.88-22.44,2.93-33.17,8.78-11.71,18.21-15.61,25.37-15.61,3.58,0,6.18,1.3,7.48,2.93,18.86-26.02,26.34-46.18,26.34-57.89,0-5.53-2.6-8.78-7.48-8.78-14.31,0-38.38,24.07-74.8,66.02-43.26,50.74-56.59,72.85-56.59,84.89,0,5.2,2.93,7.48,7.81,7.48,16.26,0,43.58-19.51,68.95-45.86Z"/>
  <path class="cls-2" d="M1441.79,655.09c-50.41,52.04-109.28,104.07-126.19,104.07-6.83,0-8.78-3.9-8.78-9.76,0-16.26,12.03-40.98,27.64-65.37,11.06-17.24,32.2-46.83,66.02-84.89h-23.09c-15.29,15.29-33.82,33.5-55.62,55.94l-3.25-3.25c29.6-30.57,42.93-44.23,52.69-53.99,4.23-11.06,11.38-26.99,19.51-37.08,8.46-10.41,18.21-15.29,29.6-15.29,5.2,0,9.76,.98,11.71,1.63-12.03,10.41-27.64,25.37-49.44,46.83h58.22c-42.93,41.3-77.08,81.96-92.04,101.15-20.49,26.34-35.78,49.11-35.78,55.62,0,2.28,.98,3.25,3.25,3.25,13.33,0,75.45-53.66,122.29-102.12l3.25,3.25Z"/>
  <path class="cls-2" d="M1467.8,636.88l44.56-55.29-.65-.65c-24.39,26.67-50.09,53.99-69.93,74.15l-3.25-3.25c26.34-27.64,59.84-63.1,95.62-101.8,13.99-15.94,45.86-51.71,53.66-60.17h35.78c-34.15,35.12-96.59,104.07-140.18,157.41-30.57,37.4-55.94,70.9-65.05,89.76-3.9,8.13-6.18,18.21,.98,18.21,9.43,0,64.07-46.51,119.04-103.42l3.25,3.25c-57.57,59.52-108.3,105.38-123.59,105.38-5.85,0-9.43-4.23-9.43-11.38,0-20.81,23.42-67.65,59.19-112.21Z"/>
  <path class="cls-2" d="M1716.28,651.84l3.25,3.25c-8.46,8.78-18.54,19.19-28.62,29.92-53.99,57.57-84.56,77.41-94.64,77.41-5.85,0-8.78-3.58-8.78-11.06,0-16.59,13.66-49.11,34.48-78.71l4.88-6.83-.97-.65c-76.43,75.78-106.68,93.99-120.99,93.99-7.48,0-12.68-3.58-12.68-14.96,0-19.51,14.64-59.84,46.18-92.37,35.78-37.4,83.59-60.49,103.42-60.49,14.31,0,17.56,8.78,17.56,16.26,0,6.51-1.95,13.66-5.85,21.14l.65,.32c44.23-57.57,89.11-107,118.38-139.2h36.1c-34.15,35.12-96.59,104.07-140.18,157.41-42.28,51.71-74.48,98.55-74.48,107.65,0,1.3,.65,2.28,2.6,2.28,7.48,0,39.35-20.49,91.06-75.13,10.41-11.06,20.16-21.47,28.62-30.25Zm-79.68-4.23c13.33-18.54,17.56-31.87,17.56-40,0-6.5-2.6-11.06-10.08-11.06-11.38,0-26.02,9.43-84.56,69.93-49.11,51.06-61.47,71.55-61.47,81.31,0,4.23,2.28,6.18,6.83,6.18,13.33,0,45.21-20.16,131.72-106.35Z"/>
  <g>
    <path class="cls-5" d="M1065.99,425.21h29.62l2.93,9.83-9.62-9.34h-6.06v44.4l3.76,3.9h-11.71l3.76-3.9v-44.4h-6.06l-9.55,9.34,2.93-9.83Z"/>
    <path class="cls-5" d="M1122.39,425c13.38,0,24.47,10.8,24.47,24.61s-11.22,24.6-24.54,24.6-24.47-10.8-24.47-24.6,11.22-24.61,24.54-24.61Zm4.11,47.26c10.18,0,16.73-8.02,16.73-17.98,0-13.87-11.78-27.32-25.02-27.32-10.18,0-16.73,8.02-16.73,17.98,0,13.87,11.78,27.32,25.02,27.32Z"/>
  </g>
  <g>
    <path class="cls-5" d="M1330.46,460.17l-3.79,3.93,13.12,32.97,12.56-32.97-3.86-3.93h8.28l-3.79,4-12.98,34.23v7.22l3.79,3.65h-11.78l3.79-3.93v-6.1l-13.96-35.14-3.79-3.93h12.42Z"/>
    <path class="cls-5" d="M1378.94,459.96c13.47,0,24.62,10.87,24.62,24.76s-11.29,24.76-24.69,24.76-24.62-10.87-24.62-24.76,11.29-24.76,24.69-24.76Zm4.14,47.56c10.24,0,16.83-8.07,16.83-18.1,0-13.96-11.85-27.5-25.18-27.5-10.24,0-16.83,8.07-16.83,18.1,0,13.96,11.85,27.5,25.18,27.5Z"/>
    <path class="cls-5" d="M1417.45,460.17l-3.79,3.93v27.57c0,9.61,6.24,17.4,13.89,17.4,8.21,0,15.57-5.89,15.57-17.4v-27.57l-3.79-3.93h8.07l-3.79,3.93v27.64c-.07,9.89-5.82,17.89-16.06,17.89s-18.1-8-18.1-17.89v-27.64l-3.79-3.93h11.78Z"/>
    <path class="cls-5" d="M1481.63,505.7l3.23,3.58h-10.66l2.88-3.09-10.73-23.22c-4.35,2.39-8.84,5.19-9.12,10.59v11.79l3.79,3.93h-11.78l3.79-3.93v-41.25l-3.79-3.93h18.8c6.45,0,11.29,4.42,11.29,10.31,0,5.33-3.93,7.58-9.4,10.59l11.71,24.62Zm-6.59-35c0-4-1.47-9.82-10.94-10.03h-6.87v30.51c1.47-4.56,5.47-6.73,9.75-9.12,4.91-2.74,8.07-7.37,8.07-11.36Z"/>
  </g>
</svg>